<svg width="400" height="240" viewBox="0 0 400 240" fill="none" xmlns="http://www.w3.org/2000/svg">
  <!-- Orange/Amber Zone (Left - Low) -->
  <path d="M 80 200 A 120 120 0 0 1 140 95" stroke="#F59E0B" stroke-width="24" fill="none" stroke-linecap="round" opacity="0.4"/>

  <!-- Blue Zone (Center - Medium) -->
  <path d="M 145 90 A 120 120 0 0 1 255 90" stroke="#3B82F6" stroke-width="24" fill="none" stroke-linecap="round" opacity="0.4"/>

  <!-- Green Zone (Right - High) -->
  <path d="M 260 95 A 120 120 0 0 1 320 200" stroke="#10B981" stroke-width="24" fill="none" stroke-linecap="round" opacity="0.4"/>

  <!-- Tick marks -->
  <line x1="80" y1="200" x2="90" y2="195" stroke="#9CA3AF" stroke-width="2"/>
  <line x1="95" y1="170" x2="105" y2="167" stroke="#9CA3AF" stroke-width="2"/>
  <line x1="115" y1="145" x2="125" y2="143" stroke="#9CA3AF" stroke-width="2"/>
  <line x1="140" y1="125" x2="150" y2="125" stroke="#9CA3AF" stroke-width="2"/>
  <line x1="165" y1="110" x2="175" y2="112" stroke="#9CA3AF" stroke-width="2"/>
  <line x1="190" y1="105" x2="200" y2="108" stroke="#9CA3AF" stroke-width="2"/>
  <line x1="215" y1="110" x2="225" y2="112" stroke="#9CA3AF" stroke-width="2"/>
  <line x1="240" y1="125" x2="250" y2="125" stroke="#9CA3AF" stroke-width="2"/>
  <line x1="265" y1="145" x2="275" y2="143" stroke="#9CA3AF" stroke-width="2"/>
  <line x1="285" y1="170" x2="295" y2="167" stroke="#9CA3AF" stroke-width="2"/>
  <line x1="305" y1="195" x2="315" y2="200" stroke="#9CA3AF" stroke-width="2"/>

  <!-- Center pivot point -->
  <circle cx="200" cy="200" r="4" fill="#6B7280"/>
</svg>
