<?xml version="1.0" encoding="UTF-8"?>
<svg id="Layer_1" data-name="Layer 1" xmlns="http://www.w3.org/2000/svg" viewBox="0 0 144 144">
  <defs>
    <style>
      .cls-1 {
        fill: #231f20;
        stroke: #231f20;
        stroke-miterlimit: 10;
        stroke-width: 1.36px;
      }
    </style>
  </defs>
  <path class="cls-1" d="M35.88,78.7c-.94-3.19-1.42-6.56-1.42-10.03,0-20.51,16.72-37.19,37.23-37.19,6.11,0,11.94,1.49,17,4.13l6.66-6.66c-6.94-4.13-15.02-6.56-23.66-6.56-25.57,0-46.29,20.78-46.29,46.29,0,4.82.73,9.47,2.12,13.85,2.12-2.36,5.1-3.75,8.36-3.82Z"/>
  <path class="cls-1" d="M104.72,51.71c2.6,5.1,4.13,10.86,4.13,16.97,0,20.51-16.65,37.2-37.16,37.2h-.52c.42,3.19-.49,6.42-2.6,8.95,1.04.11,2.08.14,3.12.14,25.5,0,46.22-20.75,46.22-46.29,0-8.6-2.36-16.72-6.52-23.63l-6.66,6.66Z"/>
  <path class="cls-1" d="M71.67,48.95c1.13,0,2.27.09,3.36.32l7.31-7.3c-3.31-1.36-6.9-2.09-10.66-2.09-15.92,0-28.85,12.93-28.85,28.81s12.93,28.85,28.85,28.85,28.81-12.93,28.81-28.85c0-3.77-.73-7.35-2.09-10.66l-7.31,7.3c.23,1.09.32,2.22.32,3.36,0,10.89-8.85,19.78-19.74,19.78s-19.78-8.89-19.78-19.78,8.89-19.74,19.78-19.74Z"/>
  <path class="cls-1" d="M134.74,19.88c-.53-1.27-1.77-2.1-3.15-2.1h-9.03v-9.03c0-1.38-.83-2.62-2.1-3.15-1.27-.52-2.73-.24-3.71.74l-9.32,9.32c-.64.64-1,1.5-1,2.41v9.41l-30.62,30.62c-1.29-.51-2.69-.81-4.16-.81-6.28,0-11.39,5.11-11.39,11.39s5.11,11.38,11.39,11.38,11.38-5.1,11.38-11.38c0-1.47-.3-2.87-.81-4.16l30.62-30.62h9.42c.9,0,1.77-.36,2.41-1l9.32-9.32c.97-.97,1.26-2.44.74-3.71Z"/>
  <path class="cls-1" d="M60.08,103.75l-13.51-1.83c-.52-.07-.98-.4-1.21-.87l-5.92-12.29c-1.34-2.78-5.29-2.78-6.62,0l-5.92,12.29c-.23.47-.68.8-1.2.87l-13.52,1.83c-3.05.41-4.28,4.17-2.05,6.3l9.86,9.42c.38.36.55.89.46,1.41l-2.44,13.42c-.55,3.03,2.65,5.35,5.36,3.89l12.01-6.47c.46-.25,1.02-.25,1.48,0l12.01,6.47c2.71,1.46,5.91-.86,5.36-3.89l-2.44-13.42c-.09-.52.08-1.05.46-1.41l9.86-9.42c2.23-2.13,1.01-5.89-2.05-6.3Z"/>
</svg>