<?xml version="1.0" encoding="UTF-8"?>
<svg id="Layer_1" data-name="Layer 1" xmlns="http://www.w3.org/2000/svg" viewBox="0 0 144 144">
  <defs>
    <style>
      .cls-1 {
        fill: none;
        stroke: #010101;
        stroke-linecap: round;
        stroke-linejoin: round;
        stroke-width: 2.67px;
      }
    </style>
  </defs>
  <circle class="cls-1" cx="68.16" cy="72.66" r="7.03" transform="translate(-31.42 69.48) rotate(-45)"/>
  <path class="cls-1" d="M49.74,83.09l8.82,8.73c.61.6.95,1.42.95,2.27v31.58"/>
  <path class="cls-1" d="M76.81,125.68v-31.58c0-.85.34-1.68.95-2.27l6.59-3.47"/>
  <path class="cls-1" d="M82.79,79.33c-4.83,2.17-11.9,5.24-13.23,5.24h-2.8c-2.07,0-4.07-.73-5.65-2.07l-6.25-5.27"/>
  <line class="cls-1" x1="68.16" y1="125.68" x2="68.16" y2="109.92"/>
  <g>
    <path class="cls-1" d="M126.56,87.57c2.47,0,4.48-1.86,4.48-4.15v-29.34c0-4.68-4.1-8.48-9.15-8.48h-25.34c-5.05,0-9.15,3.8-9.15,8.48v29.34c0,2.29,2.01,4.15,4.48,4.15"/>
    <polyline class="cls-1" points="122.91 66.53 122.91 72.58 122.91 82.86 122.91 125.68"/>
    <line class="cls-1" x1="109.22" y1="91.38" x2="108.82" y2="125.68"/>
    <line class="cls-1" x1="95.53" y1="125.68" x2="95.53" y2="66.53"/>
    <circle class="cls-1" cx="109.22" cy="30.81" r="11.25"/>
  </g>
  <g>
    <path class="cls-1" d="M14.89,78.43l-2.25-3.24c-.7-1.22-.92-2.66-.62-4.03l3.2-14.44,1.58-7.14.3-1.37c.89-4.03,4.47-6.9,8.59-6.9h11.72c3.99,0,7.48,2.68,8.51,6.54l6.19,23.3c.44,1.64.11,3.38-.89,4.75l-2.15,2.53"/>
    <polyline class="cls-1" points="23 54.17 15.42 90.97 48.01 90.97 40.43 54.17"/>
    <circle class="cls-1" cx="31.45" cy="28.13" r="9.81"/>
    <line class="cls-1" x1="21.6" y1="125.68" x2="19.41" y2="91.54"/>
    <line class="cls-1" x1="31.2" y1="91.54" x2="31.2" y2="125.43"/>
    <line class="cls-1" x1="40.8" y1="125.68" x2="42.98" y2="91.54"/>
    <line class="cls-1" x1="31.2" y1="91.54" x2="31.2" y2="125.43"/>
  </g>
  <line class="cls-1" x1="9" y1="125.68" x2="135" y2="125.68"/>
</svg>