<?xml version="1.0" encoding="UTF-8"?>
<svg id="Layer_1" data-name="Layer 1" xmlns="http://www.w3.org/2000/svg" viewBox="0 0 144 144">
  <defs>
    <style>
      .cls-1 {
        fill: none;
        stroke: #231f20;
        stroke-miterlimit: 10;
        stroke-width: 2.33px;
      }
    </style>
  </defs>
  <path class="cls-1" d="M104.83,97.55l-17.64-4.33c-.58-7.2-2.4-21.17-7.87-31.45-.72-1.36-.82-2.98-.08-4.34.87-1.57,1.57-3.24,2.06-5.01,3.08-11.12,1.24-23.05-5.04-32.72l-2.8-4.32c-1.5-2.31-4.47-3.43-6.99-2.32-3.21,1.41-4.27,5.27-2.45,8.08l2.96,4.57c4.56,7.03,5.89,15.68,3.66,23.75-1.12,4.04-4.15,7.27-7.85,8.56-.69.2-6.81,2-8.81,2.73-6,2.2-16.64,11.36-18.71,13.18-1.22,1.07-1.91,2.62-1.88,4.25.03,1.63.77,3.15,2.02,4.18l15.39,12.59c1.03.84,2.26,1.25,3.5,1.25.28,0,.55-.05.83-.09l-42.61,23.39c-2.91,1.6-4.39,5.19-3.01,8.21,1.06,2.32,3.32,3.65,5.66,3.65,1.01,0,2.04-.25,2.99-.77l47.98-26.34h13.86l12.87,3.16-10.02,13.8c-1.82,2.51-1.8,6.07.38,8.27,2.78,2.8,7.26,2.36,9.48-.69l15.66-21.56c1.22-1.68,1.52-3.85.81-5.79-.71-1.94-2.34-3.41-4.36-3.9ZM47.6,78.06c3.13-2.5,6.45-4.93,8.71-6.19l.82,13.99-9.53-7.8Z"/>
  <path class="cls-1" d="M52.74,56.67c7.63,0,13.82-6.19,13.82-13.82s-6.19-13.82-13.82-13.82-13.82,6.19-13.82,13.82,6.19,13.82,13.82,13.82Z"/>
  <path class="cls-1" d="M129.88,51.4c-4.92-3.21-11.54-1.8-15.21,2.79l-1.26,1.57c-.28.35-.82.35-1.1,0l-1.56-1.95c-4.1-5.14-11.79-5.72-16.64-1.03-3.91,3.79-4.22,9.87-1.33,14.4h6.93l3.24-5.45c.37-.63,1.05-1.02,1.78-1.02s1.41.39,1.78,1.02l5.91,9.94,2.06-3.47c.37-.63,1.05-1.01,1.78-1.01h5.88c1.15,0,2.07.93,2.07,2.08s-.93,2.07-2.07,2.07h-4.7l-3.24,5.45c-.38.63-1.05,1.01-1.78,1.01s-1.41-.39-1.78-1.01l-5.91-9.94-2.06,3.47c-.37.63-1.05,1.01-1.78,1.01h-4.94l13.6,17.02c1.69,2.12,4.91,2.12,6.6,0l16.38-20.5c4.1-5.14,2.98-12.76-2.66-16.45Z"/>
</svg>