<?xml version="1.0" encoding="UTF-8"?><svg id="Layer_1" xmlns="http://www.w3.org/2000/svg" viewBox="0 0 288 288"><g id="Circle"><g id="Lines"><rect x="142.8" y="30.45" width="2.4" height="227.52" transform="translate(-22.85 27.2) rotate(-10)" fill="#333"/><rect x="142.8" y="30.45" width="2.4" height="227.52" transform="translate(-32.42 42.18) rotate(-15)" fill="#333"/><rect x="142.8" y="30.45" width="2.4" height="227.52" transform="translate(-40.64 57.95) rotate(-20)" fill="#333"/><rect x="142.8" y="30.45" width="2.4" height="227.52" transform="translate(-47.45 74.37) rotate(-25)" fill="#333"/><rect x="142.8" y="30.45" width="2.4" height="227.52" transform="translate(-52.81 91.32) rotate(-30)" fill="#333"/><rect x="142.8" y="30.45" width="2.4" height="227.52" transform="translate(-56.67 108.67) rotate(-35)" fill="#333"/><rect x="142.8" y="30.45" width="2.4" height="227.52" transform="translate(-59.01 126.3) rotate(-40)" fill="#333"/><rect x="142.8" y="30.45" width="2.4" height="227.52" transform="translate(-59.03 161.82) rotate(-50)" fill="#333"/><rect x="142.8" y="30.45" width="2.4" height="227.52" transform="translate(-56.72 179.45) rotate(-55)" fill="#333"/><rect x="142.8" y="30.45" width="2.4" height="227.52" transform="translate(-52.89 196.81) rotate(-60)" fill="#333"/><rect x="142.8" y="30.45" width="2.4" height="227.52" transform="translate(-47.55 213.77) rotate(-65)" fill="#333"/><rect x="142.8" y="30.45" width="2.4" height="227.52" transform="translate(-40.76 230.2) rotate(-70)" fill="#333"/><rect x="142.8" y="30.45" width="2.4" height="227.52" transform="translate(-32.56 245.98) rotate(-75)" fill="#333"/><rect x="142.8" y="30.45" width="2.4" height="227.52" transform="translate(-23.02 260.98) rotate(-80)" fill="#333"/><rect x="30.24" y="143.01" width="227.52" height="2.4" transform="translate(-22.89 27.25) rotate(-10.02)" fill="#333"/><rect x="30.24" y="143.01" width="227.52" height="2.4" transform="translate(-32.44 42.23) rotate(-15.01)" fill="#333"/><rect x="30.24" y="143.01" width="227.52" height="2.4" transform="translate(-40.6 57.87) rotate(-19.98)" fill="#333"/><rect x="30.24" y="143.01" width="227.52" height="2.4" transform="translate(-47.45 74.36) rotate(-25)" fill="#333"/><rect x="30.24" y="143.01" width="227.52" height="2.4" transform="translate(-52.81 91.33) rotate(-30)" fill="#333"/><rect x="30.24" y="143.01" width="227.52" height="2.4" transform="translate(-56.67 108.69) rotate(-35)" fill="#333"/><rect x="30.24" y="143.01" width="227.52" height="2.4" transform="translate(-59.01 126.32) rotate(-40.01)" fill="#333"/><rect x="30.24" y="143.01" width="227.52" height="2.4" transform="translate(-59.03 161.79) rotate(-49.99)" fill="#333"/><rect x="30.24" y="143.01" width="227.52" height="2.4" transform="translate(-56.74 179.33) rotate(-54.97)" fill="#333"/><rect x="30.24" y="143.01" width="227.52" height="2.4" transform="translate(-52.89 196.8) rotate(-60)" fill="#333"/><rect x="30.24" y="143.01" width="227.52" height="2.4" transform="translate(-47.59 213.66) rotate(-64.97)" fill="#333"/><rect x="30.24" y="143.01" width="227.52" height="2.4" transform="translate(-40.8 230.11) rotate(-69.97)" fill="#333"/><rect x="30.24" y="143.01" width="227.52" height="2.4" transform="translate(-32.58 245.95) rotate(-74.99)" fill="#333"/><rect x="30.24" y="143.01" width="227.52" height="2.4" transform="translate(-22.96 261.07) rotate(-80.03)" fill="#333"/><circle cx="144" cy="144" r="102.24" fill="#fff"/></g><g id="Outer_Circle"><path d="M144,30.24c62.83,0,113.76,50.93,113.76,113.76s-50.93,113.76-113.76,113.76S30.24,206.83,30.24,144,81.17,30.24,144,30.24M144,27.84c-64.05,0-116.16,52.11-116.16,116.16s52.11,116.16,116.16,116.16,116.16-52.11,116.16-116.16S208.05,27.84,144,27.84h0Z" fill="#333"/><path d="M144,32c61.86,0,112,50.14,112,112s-50.14,112-112,112-112-50.14-112-112,50.14-112,112-112M144,30.4c-62.64,0-113.6,50.96-113.6,113.6s50.96,113.6,113.6,113.6,113.6-50.96,113.6-113.6S206.64,30.4,144,30.4h0Z" fill="#fff"/></g></g><g id="Middle_Circle"><path d="M144,57.6c47.72,0,86.4,38.68,86.4,86.4s-38.68,86.4-86.4,86.4-86.4-38.68-86.4-86.4,38.68-86.4,86.4-86.4M144,55.2c-48.96,0-88.8,39.84-88.8,88.8s39.84,88.8,88.8,88.8,88.8-39.84,88.8-88.8-39.84-88.8-88.8-88.8h0Z" fill="#333"/></g><g id="Star"><g id="_2nd_Tier_Star"><polygon points="144 112.87 64.8 64.8 112.87 144 64.8 223.2 144 175.13 223.2 223.2 175.13 144 223.2 64.8 144 112.87" fill="#333"/><polygon points="144 144 211.78 211.78 170.64 144 144 144" fill="#fff"/><polygon points="144 144 211.78 211.78 144 170.64 144 144" fill="#333"/><polygon points="144 144 211.78 76.22 144 117.36 144 144" fill="#fff"/><polygon points="144 144 211.78 76.22 170.64 144 144 144" fill="#333"/><polygon points="144 144 69.44 69.44 114.7 144 144 144" fill="#fff"/><polygon points="144 144 69.44 69.44 144 114.7 144 144" fill="#333"/><polygon points="144 144 76.22 211.78 144 170.64 144 144" fill="#fff"/><polygon points="144 144 76.22 211.78 117.36 144 144 144" fill="#333"/></g><g id="Outer_Star"><polygon points="172.3 115.7 144 0 115.7 115.7 0 144 115.7 172.3 144 288 172.3 172.3 288 144 172.3 115.7" fill="#333"/><g id="Top_Star"><polygon points="144 144 144 279.56 170.64 170.64 144 144" fill="#fff"/><polygon points="144 144 144 279.56 117.36 170.64 144 144" fill="#333"/><polygon points="144 144 279.56 144 170.64 117.36 144 144" fill="#fff"/><polygon points="144 144 279.56 144 170.64 170.64 144 144" fill="#333"/><polygon points="144 144 144 8.44 117.36 117.36 144 144" fill="#fff"/><polygon points="144 144 144 8.44 170.64 117.36 144 144" fill="#333"/><polygon points="144 144 8.44 144 117.36 170.64 144 144" fill="#fff"/><polygon points="144 144 8.44 144 117.36 117.36 144 144" fill="#333"/></g></g></g><g id="Center_Circle"><path d="M144,164.96c-11.56,0-20.96-9.4-20.96-20.96s9.4-20.96,20.96-20.96,20.96,9.4,20.96,20.96-9.4,20.96-20.96,20.96ZM144,124.64c-10.68,0-19.36,8.69-19.36,19.36s8.68,19.36,19.36,19.36,19.36-8.68,19.36-19.36-8.69-19.36-19.36-19.36Z" fill="#fff"/><g id="Core_Circle"><circle cx="144" cy="144" r="24.48" fill="#fff"/><path d="M144,169.68c-14.16,0-25.68-11.52-25.68-25.68s11.52-25.68,25.68-25.68,25.68,11.52,25.68,25.68-11.52,25.68-25.68,25.68ZM144,120.72c-12.84,0-23.28,10.44-23.28,23.28s10.44,23.28,23.28,23.28,23.28-10.44,23.28-23.28-10.44-23.28-23.28-23.28Z" fill="#333"/><circle cx="144" cy="144" r="20.16" fill="#333"/><circle cx="144" cy="144" r="16.8" fill="#fff"/></g></g><path id="Tasks" d="M113.04,19.78c.32,1.2-.39,2.43-1.59,2.76s-2.43-.39-2.76-1.59.39-2.43,1.59-2.76,2.43.39,2.76,1.59Z" fill="#009444"/><path id="Roses" d="M81.95,32.02c.62,1.08.25,2.45-.82,3.07-1.08.62-2.45.25-3.07-.82s-.25-2.45.82-3.07c1.08-.62,2.45-.25,3.07.82Z" fill="#00aeef"/><path id="Thorns" d="M34.27,78.05c1.08.62,1.44,2,.82,3.07s-2,1.44-3.07.82c-1.08-.62-1.44-2-.82-3.07s2-1.44,3.07-.82Z" fill="#c49a6c"/><path id="Rflections" d="M253.73,78.05c1.08-.62,2.45-.25,3.07.82.62,1.08.25,2.45-.82,3.07-1.08.62-2.45.25-3.07-.82-.62-1.08-.25-2.45.82-3.07Z" fill="#bd5ca3"/><path id="Deposit_Ideas" d="M206.05,32.02c.62-1.08,2-1.44,3.07-.82,1.08.62,1.44,2,.82,3.07s-2,1.44-3.07.82c-1.08-.62-1.44-2-.82-3.07Z" fill="#fbb040"/><path id="Events" d="M174.96,19.78c.32-1.2,1.56-1.91,2.76-1.59,1.2.32,1.91,1.56,1.59,2.76s-1.56,1.91-2.76,1.59-1.91-1.56-1.59-2.76Z" fill="#8dc63f"/><g id="Unused_Dots"><g id="SE_Dots"><path d="M179.3,267.06c.32,1.2-.39,2.43-1.59,2.76-1.2.32-2.43-.39-2.76-1.59-.32-1.2.39-2.43,1.59-2.76,1.2-.32,2.43.39,2.76,1.59Z" fill="#333"/><path d="M209.95,253.73c.62,1.08.25,2.45-.82,3.07s-2.45.25-3.07-.82-.25-2.45.82-3.07c1.08-.62,2.45-.25,3.07.82Z" fill="#333"/><path d="M236.1,232.92c.88.88.88,2.3,0,3.18s-2.3.88-3.18,0c-.88-.88-.88-2.3,0-3.18.88-.88,2.3-.88,3.18,0Z" fill="#333"/><path d="M255.98,206.05c1.08.62,1.44,2,.82,3.07-.62,1.08-2,1.44-3.07.82-1.08-.62-1.44-2-.82-3.07.62-1.08,2-1.44,3.07-.82Z" fill="#333"/><path d="M268.22,174.96c1.2.32,1.91,1.56,1.59,2.76s-1.56,1.91-2.76,1.59-1.91-1.56-1.59-2.76,1.56-1.91,2.76-1.59Z" fill="#333"/></g><path d="M57.9,49.08c.88.88.88,2.3,0,3.18-.88.88-2.3.88-3.18,0-.88-.88-.88-2.3,0-3.18.88-.88,2.3-.88,3.18,0Z" fill="#333"/><path d="M23.77,105.87c1.2.32,1.91,1.56,1.59,2.76-.32,1.2-1.56,1.91-2.76,1.59-1.2-.32-1.91-1.56-1.59-2.76s1.56-1.91,2.76-1.59Z" fill="#333"/><path d="M267.06,108.7c1.2-.32,2.43.39,2.76,1.59s-.39,2.43-1.59,2.76c-1.2.32-2.43-.39-2.76-1.59-.32-1.2.39-2.43,1.59-2.76Z" fill="#333"/><path d="M232.92,51.9c.88-.88,2.3-.88,3.18,0s.88,2.3,0,3.18c-.88.88-2.3.88-3.18,0s-.88-2.3,0-3.18Z" fill="#333"/><g id="SW_Dots"><path d="M19.78,174.96c1.2-.32,2.43.39,2.76,1.59.32,1.2-.39,2.43-1.59,2.76s-2.43-.39-2.76-1.59.39-2.43,1.59-2.76Z" fill="#333"/><path d="M32.02,206.05c1.08-.62,2.45-.25,3.07.82s.25,2.45-.82,3.07c-1.08.62-2.45.25-3.07-.82s-.25-2.45.82-3.07Z" fill="#333"/><path d="M51.9,232.92c.88-.88,2.3-.88,3.18,0s.88,2.3,0,3.18-2.3.88-3.18,0c-.88-.88-.88-2.3,0-3.18Z" fill="#333"/><path d="M78.05,253.73c.62-1.08,2-1.44,3.07-.82,1.08.62,1.44,2,.82,3.07-.62,1.08-2,1.44-3.07.82s-1.44-2-.82-3.07Z" fill="#333"/><path d="M108.7,267.06c.32-1.2,1.56-1.91,2.76-1.59,1.2.32,1.91,1.56,1.59,2.76-.32,1.2-1.56,1.91-2.76,1.59s-1.91-1.56-1.59-2.76Z" fill="#333"/></g></g><g id="spindle_green"><g id="spindle_green-2"><polygon points="121.73 144.02 143.91 48.12 166.27 143.98 144.09 239.88 121.73 144.02" fill="#00a651"/><path d="M155.5,155.48c-6.34,6.35-16.63,6.36-22.98.02-1.06-1.06-1.92-2.23-2.63-3.47l14.18,60.78,14.06-60.81c-.7,1.24-1.57,2.41-2.62,3.47Z" fill="#fff"/><circle cx="144" cy="144" r="10.35" transform="translate(-54.24 97.4) rotate(-31.77)" fill="#fff"/></g><circle cx="144" cy="144" r="3.6" fill="#333"/></g></svg>